<svg width="137" height="75" viewBox="0 0 137 75" fill="none" xmlns="http://www.w3.org/2000/svg">
<path d="M77.3923 21.8308C77.3923 30.639 71.72 37.5769 64.9462 37.5769C58.1723 37.5769 52.5 30.639 52.5 21.8308C52.5 13.0225 58.1723 6.08461 64.9462 6.08461C71.72 6.08461 77.3923 13.0225 77.3923 21.8308Z" stroke="#FACC15"/>
<path d="M84.5 21.8308C84.5 30.639 78.8277 37.5769 72.0539 37.5769C65.28 37.5769 59.6077 30.639 59.6077 21.8308C59.6077 13.0225 65.28 6.08461 72.0539 6.08461C78.8277 6.08461 84.5 13.0225 84.5 21.8308Z" stroke="#FACC15"/>
<path d="M68.7538 5.58462C69.1703 3.6547 70.5412 -0.163035 72.6937 0.00539427C74.8462 0.173824 70.964 3.79505 68.7538 5.58462Z" fill="#36E99E"/>
<path d="M10.314 66.0769C8.106 66.0769 6.492 65.5669 5.472 64.5469C4.452 63.5269 3.942 61.9189 3.942 59.7229V50.9569H1.8C1.164 50.9569 0.846 50.6389 0.846 50.0029C0.846 49.3789 1.164 49.0669 1.8 49.0669H3.942V45.1969C3.942 44.5609 4.254 44.2429 4.878 44.2429C5.514 44.2429 5.832 44.5609 5.832 45.1969V49.0669H10.35C10.974 49.0669 11.286 49.3789 11.286 50.0029C11.286 50.6389 10.974 50.9569 10.35 50.9569H5.832V59.7229C5.832 61.4029 6.156 62.5669 6.804 63.2149C7.464 63.8629 8.634 64.1869 10.314 64.1869C10.662 64.1869 10.908 64.2649 11.052 64.4209C11.208 64.5769 11.286 64.8109 11.286 65.1229C11.286 65.7589 10.962 66.0769 10.314 66.0769ZM24.4389 66.0769C22.1949 66.0769 20.5509 65.5609 19.5069 64.5289C18.4629 63.4849 17.9409 61.8469 17.9409 59.6149V55.5469C17.9409 53.2789 18.4629 51.6289 19.5069 50.5969C20.5509 49.5529 22.1949 49.0429 24.4389 49.0669H27.3909C29.6349 49.0669 31.2729 49.5889 32.3049 50.6329C33.3489 51.6649 33.8709 53.3029 33.8709 55.5469V59.5789C33.8709 61.8229 33.3489 63.4669 32.3049 64.5109C31.2729 65.5549 29.6349 66.0769 27.3909 66.0769H24.4389ZM19.8309 59.6149C19.8309 61.3069 20.1669 62.4949 20.8389 63.1789C21.5229 63.8509 22.7229 64.1869 24.4389 64.1869H27.3909C29.1069 64.1869 30.3009 63.8509 30.9729 63.1789C31.6449 62.4949 31.9809 61.2949 31.9809 59.5789V55.5469C31.9809 53.8309 31.6449 52.6369 30.9729 51.9649C30.3009 51.2929 29.1069 50.9569 27.3909 50.9569H24.4389C23.2869 50.9449 22.3749 51.0829 21.7029 51.3709C21.0309 51.6589 20.5509 52.1389 20.2629 52.8109C19.9749 53.4829 19.8309 54.3949 19.8309 55.5469V59.6149ZM62.7803 49.0309C64.7123 49.0309 66.0923 49.5229 66.9203 50.5069C67.7603 51.4909 68.1803 53.1169 68.1803 55.3849V65.1589C68.1803 65.7829 67.8683 66.0949 67.2443 66.0949C66.6083 66.0949 66.2903 65.7829 66.2903 65.1589V55.3849C66.2903 53.8009 66.0203 52.6609 65.4803 51.9649C64.9403 51.2689 64.0403 50.9209 62.7803 50.9209H61.2863C59.7143 50.9209 58.5863 51.2689 57.9023 51.9649C57.2303 52.6609 56.8943 53.8009 56.8943 55.3849V65.1589C56.8943 65.7829 56.5823 66.0949 55.9583 66.0949C55.3223 66.0949 55.0043 65.7829 55.0043 65.1589V55.3849C55.0043 53.8009 54.7343 52.6609 54.1943 51.9649C53.6543 51.2689 52.7543 50.9209 51.4943 50.9209H50.0003C48.4283 50.9209 47.3003 51.2689 46.6163 51.9649C45.9443 52.6609 45.6083 53.8009 45.6083 55.3849V65.1589C45.6083 65.7829 45.2963 66.0949 44.6723 66.0949C44.0363 66.0949 43.7183 65.7829 43.7183 65.1589V50.0029C43.7183 49.3789 44.0363 49.0669 44.6723 49.0669C45.2963 49.0669 45.6083 49.3789 45.6083 50.0029V51.4069C46.1363 50.5549 46.7603 49.9489 47.4803 49.5889C48.2123 49.2169 49.1363 49.0309 50.2523 49.0309H51.4943C52.7543 49.0309 53.7623 49.2529 54.5183 49.6969C55.2863 50.1289 55.8923 50.8429 56.3363 51.8389C56.8643 50.8429 57.5123 50.1289 58.2803 49.6969C59.0483 49.2529 60.0503 49.0309 61.2863 49.0309H62.7803ZM82.5404 66.0769C80.6684 66.0769 79.2944 65.6449 78.4184 64.7809C77.5544 63.9049 77.1224 62.5309 77.1224 60.6589C77.1224 58.7869 77.5604 57.4129 78.4364 56.5369C79.3124 55.6609 80.6804 55.2229 82.5404 55.2229H90.7304C90.7064 53.6389 90.3464 52.5349 89.6504 51.9109C88.9664 51.2749 87.7964 50.9569 86.1404 50.9569H84.0524C82.5284 50.9569 81.4124 51.1189 80.7044 51.4429C79.9964 51.7669 79.5584 52.3189 79.3904 53.0989C79.3064 53.3989 79.1924 53.6209 79.0484 53.7649C78.9164 53.8969 78.7004 53.9629 78.4004 53.9629C78.0884 53.9629 77.8424 53.8789 77.6624 53.7109C77.4944 53.5309 77.4344 53.2909 77.4824 52.9909C77.6384 51.6229 78.2564 50.6269 79.3364 50.0029C80.4284 49.3789 82.0004 49.0669 84.0524 49.0669H86.1404C88.3844 49.0669 90.0224 49.5889 91.0544 50.6329C92.0984 51.6649 92.6204 53.3029 92.6204 55.5469V65.1229C92.6204 65.7589 92.3084 66.0769 91.6844 66.0769C91.0484 66.0769 90.7304 65.7589 90.7304 65.1229V63.3409C89.5784 65.1649 87.5204 66.0769 84.5564 66.0769H82.5404ZM82.5404 64.1869H84.5564C85.7204 64.1869 86.7404 64.0609 87.6164 63.8089C88.5044 63.5449 89.2184 63.1249 89.7584 62.5489C90.2984 61.9729 90.6224 61.2049 90.7304 60.2449V57.1129H82.5404C81.2084 57.1129 80.2844 57.3709 79.7684 57.8869C79.2644 58.3909 79.0124 59.3149 79.0124 60.6589C79.0124 61.9909 79.2644 62.9149 79.7684 63.4309C80.2844 63.9349 81.2084 64.1869 82.5404 64.1869ZM109.581 66.0769C107.373 66.0769 105.759 65.5669 104.739 64.5469C103.719 63.5269 103.209 61.9189 103.209 59.7229V50.9569H101.067C100.431 50.9569 100.113 50.6389 100.113 50.0029C100.113 49.3789 100.431 49.0669 101.067 49.0669H103.209V45.1969C103.209 44.5609 103.521 44.2429 104.145 44.2429C104.781 44.2429 105.099 44.5609 105.099 45.1969V49.0669H109.617C110.241 49.0669 110.553 49.3789 110.553 50.0029C110.553 50.6389 110.241 50.9569 109.617 50.9569H105.099V59.7229C105.099 61.4029 105.423 62.5669 106.071 63.2149C106.731 63.8629 107.901 64.1869 109.581 64.1869C109.929 64.1869 110.175 64.2649 110.319 64.4209C110.475 64.5769 110.553 64.8109 110.553 65.1229C110.553 65.7589 110.229 66.0769 109.581 66.0769ZM119.098 58.3009V59.6149C119.098 61.3069 119.434 62.4949 120.106 63.1789C120.79 63.8509 121.99 64.1869 123.706 64.1869H126.658C128.17 64.1869 129.268 63.9949 129.952 63.6109C130.648 63.2149 131.062 62.5369 131.194 61.5769C131.242 61.2769 131.338 61.0489 131.482 60.8929C131.638 60.7369 131.872 60.6589 132.184 60.6589C132.496 60.6589 132.73 60.7489 132.886 60.9289C133.054 61.0969 133.12 61.3369 133.084 61.6489C132.928 63.1609 132.322 64.2769 131.266 64.9969C130.21 65.7169 128.674 66.0769 126.658 66.0769H123.706C121.462 66.0769 119.818 65.5609 118.774 64.5289C117.73 63.4849 117.208 61.8469 117.208 59.6149V55.5469C117.208 53.2789 117.73 51.6289 118.774 50.5969C119.818 49.5529 121.462 49.0429 123.706 49.0669H126.658C128.902 49.0669 130.54 49.5889 131.572 50.6329C132.616 51.6649 133.138 53.3029 133.138 55.5469V57.3469C133.138 57.9829 132.826 58.3009 132.202 58.3009H119.098ZM123.706 50.9569C121.99 50.9329 120.79 51.2629 120.106 51.9469C119.434 52.6189 119.098 53.8189 119.098 55.5469V56.4109H131.248V55.5469C131.248 53.8309 130.912 52.6369 130.24 51.9649C129.568 51.2929 128.374 50.9569 126.658 50.9569H123.706Z" fill="#FACC15"/>
</svg>
